<?xml version="1.0" encoding="utf-8" standalone="no"?>
<!DOCTYPE svg PUBLIC "-//W3C//DTD SVG 1.1//EN"
  "http://www.w3.org/Graphics/SVG/1.1/DTD/svg11.dtd">
<svg xmlns:xlink="http://www.w3.org/1999/xlink" width="280.511671pt" height="280.512pt" viewBox="0 0 280.511671 280.512" xmlns="http://www.w3.org/2000/svg" version="1.1">
 <metadata>
  <rdf:RDF xmlns:dc="http://purl.org/dc/elements/1.1/" xmlns:cc="http://creativecommons.org/ns#" xmlns:rdf="http://www.w3.org/1999/02/22-rdf-syntax-ns#">
   <cc:Work>
    <dc:type rdf:resource="http://purl.org/dc/dcmitype/StillImage"/>
    <dc:date>2025-05-29T07:07:24.804804</dc:date>
    <dc:format>image/svg+xml</dc:format>
    <dc:creator>
     <cc:Agent>
      <dc:title>Matplotlib v3.9.3, https://matplotlib.org/</dc:title>
     </cc:Agent>
    </dc:creator>
   </cc:Work>
  </rdf:RDF>
 </metadata>
 <defs>
  <style type="text/css">*{stroke-linejoin: round; stroke-linecap: butt}</style>
 </defs>
 <g id="figure_1">
  <g id="patch_1">
   <path d="M 0 280.512 
L 280.511671 280.512 
L 280.511671 0 
L 0 0 
z
" style="fill: #a2a2a2"/>
  </g>
  <g id="axes_1">
   <g id="patch_2">
    <path d="M 140.255536 261.21615 
C 172.334543 261.21615 203.103995 248.471025 225.787278 225.787742 
C 248.470562 203.104459 261.215686 172.335007 261.215686 140.256 
C 261.215686 108.176993 248.470562 77.407541 225.787278 54.724258 
C 203.103995 32.040975 172.334543 19.29585 140.255536 19.29585 
C 108.17653 19.29585 77.407078 32.040975 54.723794 54.724258 
C 32.040511 77.407541 19.295387 108.176993 19.295387 140.256 
C 19.295387 172.335007 32.040511 203.104459 54.723794 225.787742 
C 77.407078 248.471025 108.17653 261.21615 140.255536 261.21615 
z
" clip-path="url(#pda768b97ad)" style="fill: #a2a2a2"/>
   </g>
   <g id="line2d_1">
    <path d="M 128.465987 168.402186 
L 129.821461 170.403282 
L 131.368341 172.401199 
L 133.11471 174.383105 
L 135.068148 176.335082 
L 137.235641 178.242101 
L 139.623483 180.088023 
L 142.237169 181.855591 
L 145.081288 183.526435 
L 148.159409 185.081086 
L 151.473965 186.498994 
L 155.026135 187.758559 
L 158.815712 188.837165 
L 162.840984 189.711232 
L 167.0986 190.35627 
L 171.583439 190.746951 
L 176.288481 190.85719 
L 181.204671 190.660237 
L 186.320788 190.128782 
L 191.623315 189.235077 
L 197.096307 187.95107 
L 202.721273 186.248547 
L 208.477045 184.099301 
L 214.33967 181.475305 
L 220.2823 178.348906 
L 226.275089 174.693034 
L 232.285103 170.481424 
L 238.276239 165.688858 
L 244.209161 160.291419 
L 250.041238 154.266761 
L 255.726515 147.594397 
L 261.215686 140.256 
" clip-path="url(#pda768b97ad)" style="fill: none; stroke-dasharray: 18.5,8; stroke-dashoffset: 0; stroke: #000000; stroke-width: 5"/>
   </g>
   <g id="line2d_2">
    <path d="M 128.465987 112.109814 
L 129.821461 110.108718 
L 131.368341 108.110801 
L 133.11471 106.128895 
L 135.068148 104.176918 
L 137.235641 102.269899 
L 139.623483 100.423977 
L 142.237169 98.656409 
L 145.081288 96.985565 
L 148.159409 95.430914 
L 151.473965 94.013006 
L 155.026135 92.753441 
L 158.815712 91.674835 
L 162.840984 90.800768 
L 167.0986 90.15573 
L 171.583439 89.765049 
L 176.288481 89.65481 
L 181.204671 89.851763 
L 186.320788 90.383218 
L 191.623315 91.276923 
L 197.096307 92.56093 
L 202.721273 94.263453 
L 208.477045 96.412699 
L 214.33967 99.036695 
L 220.2823 102.163094 
L 226.275089 105.818966 
L 232.285103 110.030576 
L 238.276239 114.823142 
L 244.209161 120.220581 
L 250.041238 126.245239 
L 255.726515 132.917603 
L 261.215686 140.256 
" clip-path="url(#pda768b97ad)" style="fill: none; stroke-dasharray: 18.5,8; stroke-dashoffset: 0; stroke: #000000; stroke-width: 5"/>
   </g>
   <g id="line2d_3">
    <path d="M 112.007623 151.799684 
L 111.549233 154.172778 
L 111.228332 156.679076 
L 111.059709 159.315233 
L 111.058571 162.076778 
L 111.240489 164.958038 
L 111.621331 167.952062 
L 112.217191 171.050545 
L 113.044311 174.243757 
L 114.118991 177.520467 
L 115.457493 180.867879 
L 117.075934 184.271562 
L 118.990173 187.715394 
L 121.215687 191.1815 
L 123.767439 194.650207 
L 126.659734 198.099995 
L 129.906073 201.507467 
L 133.518987 204.847312 
L 137.509873 208.092296 
L 141.888818 211.213248 
L 146.664409 214.179063 
L 151.843543 216.956722 
L 157.431228 219.511314 
L 163.430373 221.806088 
L 169.841578 223.802506 
L 176.66291 225.460319 
L 183.889687 226.737664 
L 191.514248 227.591176 
L 199.525723 227.976117 
L 207.909805 227.846534 
L 216.648523 227.155428 
L 225.720008 225.854959 
" clip-path="url(#pda768b97ad)" style="fill: none; stroke-dasharray: 18.5,8; stroke-dashoffset: 0; stroke: #000000; stroke-width: 5"/>
   </g>
   <g id="line2d_4">
    <path d="M 112.007623 128.712316 
L 111.549233 126.339222 
L 111.228332 123.832924 
L 111.059709 121.196767 
L 111.058571 118.435222 
L 111.240489 115.553962 
L 111.621331 112.559938 
L 112.217191 109.461455 
L 113.044311 106.268243 
L 114.118991 102.991533 
L 115.457493 99.644121 
L 117.075934 96.240438 
L 118.990173 92.796606 
L 121.215687 89.3305 
L 123.767439 85.861793 
L 126.659734 82.412005 
L 129.906073 79.004533 
L 133.518987 75.664688 
L 137.509873 72.419704 
L 141.888818 69.298752 
L 146.664409 66.332937 
L 151.843543 63.555278 
L 157.431228 61.000686 
L 163.430373 58.705912 
L 169.841578 56.709494 
L 176.66291 55.051681 
L 183.889687 53.774336 
L 191.514248 52.920824 
L 199.525723 52.535883 
L 207.909805 52.665466 
L 216.648523 53.356572 
L 225.720008 54.657041 
" clip-path="url(#pda768b97ad)" style="fill: none; stroke-dasharray: 18.5,8; stroke-dashoffset: 0; stroke: #000000; stroke-width: 5"/>
   </g>
   <g id="line2d_5">
    <path d="M 112.127923 128.422209 
L 110.124698 129.774534 
L 108.124352 131.318271 
L 106.139701 133.061522 
L 104.184656 135.011888 
L 102.274231 137.17638 
L 100.424556 139.561317 
L 98.652881 142.17222 
L 96.977567 145.013708 
L 95.418078 148.089381 
L 93.99496 151.401704 
L 92.729811 154.951889 
L 91.645248 158.739765 
L 90.764853 162.763658 
L 90.113121 167.020254 
L 89.715389 171.504473 
L 89.597752 176.209336 
L 89.786975 181.12583 
L 90.310385 186.242776 
L 91.19575 191.546701 
L 92.471151 197.021706 
L 94.164827 202.649342 
L 96.30502 208.408486 
L 98.919795 214.27523 
L 102.036846 220.222769 
L 105.683291 226.221299 
L 109.885445 232.237927 
L 114.668585 238.236592 
L 120.056689 244.177993 
L 126.07217 250.019536 
L 132.735586 255.715297 
L 140.065343 261.216 
" clip-path="url(#pda768b97ad)" style="fill: none; stroke-dasharray: 18.5,8; stroke-dashoffset: 0; stroke: #000000; stroke-width: 5"/>
   </g>
   <g id="line2d_6">
    <path d="M 112.127923 152.089791 
L 110.124698 150.737466 
L 108.124352 149.193729 
L 106.139701 147.450478 
L 104.184656 145.500112 
L 102.274231 143.33562 
L 100.424556 140.950683 
L 98.652881 138.33978 
L 96.977567 135.498292 
L 95.418078 132.422619 
L 93.99496 129.110296 
L 92.729811 125.560111 
L 91.645248 121.772235 
L 90.764853 117.748342 
L 90.113121 113.491746 
L 89.715389 109.007527 
L 89.597752 104.302664 
L 89.786975 99.38617 
L 90.310385 94.269224 
L 91.19575 88.965299 
L 92.471151 83.490294 
L 94.164827 77.862658 
L 96.30502 72.103514 
L 98.919795 66.23677 
L 102.036846 60.289231 
L 105.683291 54.290701 
L 109.885445 48.274073 
L 114.668585 42.275408 
L 120.056689 36.334007 
L 126.07217 30.492464 
L 132.735586 24.796703 
L 140.065343 19.296 
" clip-path="url(#pda768b97ad)" style="fill: none; stroke-dasharray: 18.5,8; stroke-dashoffset: 0; stroke: #000000; stroke-width: 5"/>
   </g>
   <g id="line2d_7">
    <path d="M 128.756283 111.989971 
L 126.383913 111.52785 
L 123.878122 111.203008 
L 121.242234 111.03024 
L 118.480694 111.024761 
L 115.599151 111.202148 
L 112.604532 111.578281 
L 109.505116 112.169268 
L 106.310608 112.991367 
L 103.032212 114.060893 
L 99.6827 115.39413 
L 96.276476 117.007217 
L 92.829638 118.916039 
L 89.360037 121.1361 
L 85.887322 123.682395 
L 82.43299 126.569263 
L 79.020419 129.810239 
L 75.674896 133.417897 
L 72.423641 137.403677 
L 69.295808 141.777709 
L 66.322487 146.54863 
L 63.536689 151.72339 
L 60.973314 157.307052 
L 58.669109 163.302582 
L 56.662614 169.710639 
L 54.994077 176.529356 
L 53.70537 183.754116 
L 52.839871 191.377325 
L 52.442333 199.388185 
L 52.558734 207.772461 
L 53.236098 216.512254 
L 54.522301 225.585773 
" clip-path="url(#pda768b97ad)" style="fill: none; stroke-dasharray: 18.5,8; stroke-dashoffset: 0; stroke: #000000; stroke-width: 5"/>
   </g>
   <g id="line2d_8">
    <path d="M 128.756283 168.522029 
L 126.383913 168.98415 
L 123.878122 169.308992 
L 121.242234 169.48176 
L 118.480694 169.487239 
L 115.599151 169.309852 
L 112.604532 168.933719 
L 109.505116 168.342732 
L 106.310608 167.520633 
L 103.032212 166.451107 
L 99.6827 165.11787 
L 96.276476 163.504783 
L 92.829638 161.595961 
L 89.360037 159.3759 
L 85.887322 156.829605 
L 82.43299 153.942737 
L 79.020419 150.701761 
L 75.674896 147.094103 
L 72.423641 143.108323 
L 69.295808 138.734291 
L 66.322487 133.96337 
L 63.536689 128.78861 
L 60.973314 123.204948 
L 58.669109 117.209418 
L 56.662614 110.801361 
L 54.994077 103.982644 
L 53.70537 96.757884 
L 52.839871 89.134675 
L 52.442333 81.123815 
L 52.558734 72.739539 
L 53.236098 63.999746 
L 54.522301 54.926227 
" clip-path="url(#pda768b97ad)" style="fill: none; stroke-dasharray: 18.5,8; stroke-dashoffset: 0; stroke: #000000; stroke-width: 5"/>
   </g>
   <g id="line2d_9">
    <path d="M 152.13354 112.147029 
L 150.784366 110.141679 
L 149.243776 108.138908 
L 147.503649 106.15152 
L 145.556359 104.19341 
L 143.394873 102.279583 
L 141.012847 100.426161 
L 138.404733 98.650383 
L 135.565883 96.970603 
L 132.492666 95.40628 
L 129.182585 93.977955 
L 125.634394 92.707226 
L 121.848227 91.616708 
L 117.825724 90.729987 
L 113.570158 90.071564 
L 109.086569 89.66678 
L 104.381897 89.541746 
L 99.465112 89.723238 
L 94.347349 90.238602 
L 89.042038 91.115627 
L 83.565035 92.382417 
L 77.934743 94.067242 
L 72.172241 96.198377 
L 66.301393 98.803924 
L 60.34896 101.911619 
L 54.344704 105.548628 
L 48.321476 109.741317 
L 42.315298 114.515019 
L 36.365432 119.893774 
L 30.514438 125.900062 
L 24.808206 132.554514 
L 19.295985 139.875613 
" clip-path="url(#pda768b97ad)" style="fill: none; stroke-dasharray: 18.5,8; stroke-dashoffset: 0; stroke: #000000; stroke-width: 5"/>
   </g>
   <g id="line2d_10">
    <path d="M 152.13354 168.364971 
L 150.784366 170.370321 
L 149.243776 172.373092 
L 147.503649 174.36048 
L 145.556359 176.31859 
L 143.394873 178.232417 
L 141.012847 180.085839 
L 138.404733 181.861617 
L 135.565883 183.541397 
L 132.492666 185.10572 
L 129.182585 186.534045 
L 125.634394 187.804774 
L 121.848227 188.895292 
L 117.825724 189.782013 
L 113.570158 190.440436 
L 109.086569 190.84522 
L 104.381897 190.970254 
L 99.465112 190.788762 
L 94.347349 190.273398 
L 89.042038 189.396373 
L 83.565035 188.129583 
L 77.934743 186.444758 
L 72.172241 184.313623 
L 66.301393 181.708076 
L 60.34896 178.600381 
L 54.344704 174.963372 
L 48.321476 170.770683 
L 42.315298 165.996981 
L 36.365432 160.618226 
L 30.514438 154.611938 
L 24.808206 147.957486 
L 19.295985 140.636387 
" clip-path="url(#pda768b97ad)" style="fill: none; stroke-dasharray: 18.5,8; stroke-dashoffset: 0; stroke: #000000; stroke-width: 5"/>
   </g>
   <g id="line2d_11">
    <path d="M 168.539612 128.801205 
L 169.005463 126.429565 
L 169.334244 123.924288 
L 169.511156 121.288674 
L 169.520978 118.527147 
L 169.348122 115.645329 
L 168.976698 112.650122 
L 168.390584 109.54978 
L 167.57351 106.353983 
L 166.509139 103.07391 
L 165.181171 99.722305 
L 163.573442 96.313549 
L 161.670042 92.863715 
L 159.455439 89.390627 
L 156.914608 85.913913 
L 154.033175 82.455046 
L 150.797568 79.037383 
L 147.195175 75.686192 
L 143.214513 72.428673 
L 138.845405 69.293967 
L 134.079164 66.313148 
L 128.908791 63.519216 
L 123.329167 60.947065 
L 117.337267 58.633436 
L 110.932373 56.616867 
L 104.116288 54.937611 
L 96.893563 53.637546 
L 89.271724 52.760061 
L 81.2615 52.349927 
L 72.877051 52.453145 
L 64.136203 53.116766 
L 55.060673 54.388701 
" clip-path="url(#pda768b97ad)" style="fill: none; stroke-dasharray: 18.5,8; stroke-dashoffset: 0; stroke: #000000; stroke-width: 5"/>
   </g>
   <g id="line2d_12">
    <path d="M 168.539612 151.710795 
L 169.005463 154.082435 
L 169.334244 156.587712 
L 169.511156 159.223326 
L 169.520978 161.984853 
L 169.348122 164.866671 
L 168.976698 167.861878 
L 168.390584 170.96222 
L 167.57351 174.158017 
L 166.509139 177.43809 
L 165.181171 180.789695 
L 163.573442 184.198451 
L 161.670042 187.648285 
L 159.455439 191.121373 
L 156.914608 194.598087 
L 154.033175 198.056954 
L 150.797568 201.474617 
L 147.195175 204.825808 
L 143.214513 208.083327 
L 138.845405 211.218033 
L 134.079164 214.198852 
L 128.908791 216.992784 
L 123.329167 219.564935 
L 117.337267 221.878564 
L 110.932373 223.895133 
L 104.116288 225.574389 
L 96.893563 226.874454 
L 89.271724 227.751939 
L 81.2615 228.162073 
L 72.877051 228.058855 
L 64.136203 227.395234 
L 55.060673 226.123299 
" clip-path="url(#pda768b97ad)" style="fill: none; stroke-dasharray: 18.5,8; stroke-dashoffset: 0; stroke: #000000; stroke-width: 5"/>
   </g>
   <g id="line2d_13">
    <path d="M 168.345797 152.178186 
L 170.353265 150.832167 
L 172.358456 149.294728 
L 174.348578 147.557728 
L 176.309747 145.613519 
L 178.22697 143.455045 
L 180.084135 141.075937 
L 181.864012 138.470618 
L 183.548254 135.634413 
L 185.117407 132.56366 
L 186.550935 129.255828 
L 187.827241 125.70964 
L 188.923711 121.925192 
L 189.816756 117.904088 
L 190.48187 113.649563 
L 190.893703 109.166616 
L 191.026134 104.462147 
L 190.852373 99.545082 
L 190.345057 94.426515 
L 189.476375 89.119832 
L 188.218199 83.640843 
L 186.542228 78.00791 
L 184.420157 72.242064 
L 181.823844 66.367126 
L 178.725512 60.409814 
L 175.097949 54.399847 
L 170.914736 48.370034 
L 166.150484 42.356357 
L 160.781091 36.398041 
L 154.78401 30.53761 
L 148.138538 24.820922 
L 140.826116 19.297196 
" clip-path="url(#pda768b97ad)" style="fill: none; stroke-dasharray: 18.5,8; stroke-dashoffset: 0; stroke: #000000; stroke-width: 5"/>
   </g>
   <g id="line2d_14">
    <path d="M 168.345797 128.333814 
L 170.353265 129.679833 
L 172.358456 131.217272 
L 174.348578 132.954272 
L 176.309747 134.898481 
L 178.22697 137.056955 
L 180.084135 139.436063 
L 181.864012 142.041382 
L 183.548254 144.877587 
L 185.117407 147.94834 
L 186.550935 151.256172 
L 187.827241 154.80236 
L 188.923711 158.586808 
L 189.816756 162.607912 
L 190.48187 166.862437 
L 190.893703 171.345384 
L 191.026134 176.049853 
L 190.852373 180.966918 
L 190.345057 186.085485 
L 189.476375 191.392168 
L 188.218199 196.871157 
L 186.542228 202.50409 
L 184.420157 208.269936 
L 181.823844 214.144874 
L 178.725512 220.102186 
L 175.097949 226.112153 
L 170.914736 232.141966 
L 166.150484 238.155643 
L 160.781091 244.113959 
L 154.78401 249.97439 
L 148.138538 255.691078 
L 140.826116 261.214804 
" clip-path="url(#pda768b97ad)" style="fill: none; stroke-dasharray: 18.5,8; stroke-dashoffset: 0; stroke: #000000; stroke-width: 5"/>
   </g>
   <g id="line2d_15">
    <path d="M 151.665844 168.558052 
L 154.036749 169.027631 
L 156.541506 169.360351 
L 159.176838 169.541407 
L 161.938347 169.555571 
L 164.820433 169.387246 
L 167.81622 169.020532 
L 170.91748 168.439295 
L 174.114557 167.627246 
L 177.396301 166.568035 
L 180.749989 165.245338 
L 184.161269 163.64297 
L 187.614092 161.744997 
L 191.090657 159.535858 
L 194.571362 157.000496 
L 198.034756 154.124506 
L 201.457502 150.894277 
L 204.814353 147.297158 
L 208.078127 143.321622 
L 211.219699 138.957448 
L 214.208009 134.195901 
L 217.010066 129.029927 
L 219.590988 123.454354 
L 221.914035 117.4661 
L 223.940673 111.064384 
L 225.630644 104.250948 
L 226.942065 97.030276 
L 227.831533 89.409827 
L 228.254261 81.400257 
L 228.164227 73.015656 
L 227.51435 64.273775 
L 226.256687 55.196257 
" clip-path="url(#pda768b97ad)" style="fill: none; stroke-dasharray: 18.5,8; stroke-dashoffset: 0; stroke: #000000; stroke-width: 5"/>
   </g>
   <g id="line2d_16">
    <path d="M 151.665844 111.953948 
L 154.036749 111.484369 
L 156.541506 111.151649 
L 159.176838 110.970593 
L 161.938347 110.956429 
L 164.820433 111.124754 
L 167.81622 111.491468 
L 170.91748 112.072705 
L 174.114557 112.884754 
L 177.396301 113.943965 
L 180.749989 115.266662 
L 184.161269 116.86903 
L 187.614092 118.767003 
L 191.090657 120.976142 
L 194.571362 123.511504 
L 198.034756 126.387494 
L 201.457502 129.617723 
L 204.814353 133.214842 
L 208.078127 137.190378 
L 211.219699 141.554552 
L 214.208009 146.316099 
L 217.010066 151.482073 
L 219.590988 157.057646 
L 221.914035 163.0459 
L 223.940673 169.447616 
L 225.630644 176.261052 
L 226.942065 183.481724 
L 227.831533 191.102173 
L 228.254261 199.111743 
L 228.164227 207.496344 
L 227.51435 216.238225 
L 226.256687 225.315743 
" clip-path="url(#pda768b97ad)" style="fill: none; stroke-dasharray: 18.5,8; stroke-dashoffset: 0; stroke: #000000; stroke-width: 5"/>
   </g>
  </g>
 </g>
 <defs>
  <clipPath id="pda768b97ad">
   <rect x="7.2" y="7.2" width="266.111671" height="266.112"/>
  </clipPath>
 </defs>
</svg>
