<?xml version="1.0" encoding="utf-8" standalone="no"?>
<!DOCTYPE svg PUBLIC "-//W3C//DTD SVG 1.1//EN"
  "http://www.w3.org/Graphics/SVG/1.1/DTD/svg11.dtd">
<svg xmlns:xlink="http://www.w3.org/1999/xlink" width="280.512987pt" height="280.512pt" viewBox="0 0 280.512987 280.512" xmlns="http://www.w3.org/2000/svg" version="1.1">
 <metadata>
  <rdf:RDF xmlns:dc="http://purl.org/dc/elements/1.1/" xmlns:cc="http://creativecommons.org/ns#" xmlns:rdf="http://www.w3.org/1999/02/22-rdf-syntax-ns#">
   <cc:Work>
    <dc:type rdf:resource="http://purl.org/dc/dcmitype/StillImage"/>
    <dc:date>2025-05-29T07:04:22.011002</dc:date>
    <dc:format>image/svg+xml</dc:format>
    <dc:creator>
     <cc:Agent>
      <dc:title>Matplotlib v3.9.3, https://matplotlib.org/</dc:title>
     </cc:Agent>
    </dc:creator>
   </cc:Work>
  </rdf:RDF>
 </metadata>
 <defs>
  <style type="text/css">*{stroke-linejoin: round; stroke-linecap: butt}</style>
 </defs>
 <g id="figure_1">
  <g id="patch_1">
   <path d="M 0 280.512 
L 280.512987 280.512 
L 280.512987 0 
L 0 0 
z
" style="fill: #a2a2a2"/>
  </g>
  <g id="axes_1">
   <g id="patch_2">
    <path d="M 140.256194 261.21615 
C 172.33536 261.21615 203.104964 248.470962 225.788359 225.787567 
C 248.471755 203.104172 261.216942 172.334567 261.216942 140.255402 
C 261.216942 108.176237 248.471755 77.406632 225.788359 54.723237 
C 203.104964 32.039842 172.33536 19.294654 140.256194 19.294654 
C 108.177029 19.294654 77.407425 32.039842 54.724029 54.723237 
C 32.040634 77.406632 19.295447 108.176237 19.295447 140.255402 
C 19.295447 172.334567 32.040634 203.104172 54.724029 225.787567 
C 77.407425 248.470962 108.177029 261.21615 140.256194 261.21615 
z
" clip-path="url(#pdf6676fcd8)" style="fill: #a2a2a2"/>
   </g>
   <g id="line2d_1">
    <path d="M 128.466587 168.401727 
L 129.822067 170.402833 
L 131.368955 172.400759 
L 133.115332 174.382676 
L 135.06878 176.334662 
L 137.236284 178.241691 
L 139.624138 180.087622 
L 142.237837 181.855199 
L 145.081969 183.526051 
L 148.160106 185.080709 
L 151.474679 186.498625 
L 155.026866 187.758196 
L 158.816462 188.836807 
L 162.841754 189.710878 
L 167.09939 190.35592 
L 171.584252 190.746603 
L 176.289317 190.856842 
L 181.205531 190.659888 
L 186.321674 190.12843 
L 191.624226 189.234722 
L 197.097246 187.950708 
L 202.72224 186.248177 
L 208.47804 184.09892 
L 214.340695 181.474911 
L 220.283354 178.348496 
L 226.276172 174.692606 
L 232.286216 170.480976 
L 238.277382 165.688386 
L 244.210332 160.29092 
L 250.042439 154.266232 
L 255.727744 147.593835 
L 261.216942 140.255402 
" clip-path="url(#pdf6676fcd8)" style="fill: none; stroke-dasharray: 18.5,8; stroke-dashoffset: 0; stroke: #000000; stroke-width: 5"/>
   </g>
   <g id="line2d_2">
    <path d="M 112.008141 151.799143 
L 111.549749 154.172249 
L 111.228846 156.678559 
L 111.060222 159.314729 
L 111.059085 162.076288 
L 111.241003 164.957562 
L 111.621847 167.951601 
L 112.21771 171.050099 
L 113.044834 174.243327 
L 114.11952 177.520053 
L 115.458028 180.867481 
L 117.076477 184.271182 
L 118.990726 187.71503 
L 121.216251 191.181154 
L 123.768015 194.649878 
L 126.660325 198.099683 
L 129.90668 201.507171 
L 133.519611 204.847033 
L 137.510518 208.092034 
L 141.889484 211.213001 
L 146.665098 214.178831 
L 151.844258 216.956503 
L 157.431971 219.511108 
L 163.431146 221.805894 
L 169.842382 223.802321 
L 176.663748 225.460142 
L 183.890561 226.737494 
L 191.515159 227.59101 
L 199.526674 227.975953 
L 207.910798 227.846369 
L 216.649559 227.15526 
L 225.721089 225.854784 
" clip-path="url(#pdf6676fcd8)" style="fill: none; stroke-dasharray: 18.5,8; stroke-dashoffset: 0; stroke: #000000; stroke-width: 5"/>
   </g>
   <g id="line2d_3">
    <path d="M 112.128442 128.421552 
L 110.125207 129.773884 
L 108.124851 131.317629 
L 106.140191 133.060888 
L 104.185136 135.011264 
L 102.274701 137.175767 
L 100.425017 139.560716 
L 98.653333 142.171632 
L 96.978011 145.013134 
L 95.418514 148.088821 
L 93.995389 151.401161 
L 92.730234 154.951363 
L 91.645665 158.739259 
L 90.765266 162.763171 
L 90.113531 167.019788 
L 89.715797 171.50403 
L 89.598159 176.208916 
L 89.787383 181.125434 
L 90.310796 186.242406 
L 91.196166 191.546357 
L 92.471573 197.021389 
L 94.165257 202.649052 
L 96.305461 208.408225 
L 98.920248 214.274998 
L 102.037315 220.222566 
L 105.683778 226.221126 
L 109.885953 232.237784 
L 114.669116 238.236478 
L 120.057247 244.177908 
L 126.072758 250.01948 
L 132.736207 255.71527 
L 140.066 261.216 
" clip-path="url(#pdf6676fcd8)" style="fill: none; stroke-dasharray: 18.5,8; stroke-dashoffset: 0; stroke: #000000; stroke-width: 5"/>
   </g>
   <g id="line2d_4">
    <path d="M 128.756884 111.989233 
L 126.384502 111.527109 
L 123.878699 111.202266 
L 121.242797 111.029498 
L 118.481244 111.024018 
L 115.599687 111.201406 
L 112.605054 111.577541 
L 109.505622 112.168531 
L 106.311098 112.990634 
L 103.032686 114.060166 
L 99.683157 115.393409 
L 96.276916 117.006504 
L 92.830062 118.915335 
L 89.360443 121.135408 
L 85.887711 123.681715 
L 82.433362 126.568597 
L 79.020774 129.80959 
L 75.675235 133.417265 
L 72.423964 137.403064 
L 69.296115 141.777118 
L 66.32278 146.548063 
L 63.536968 151.722849 
L 60.973579 157.306538 
L 58.669364 163.302097 
L 56.662859 169.710186 
L 54.994314 176.528937 
L 53.7056 183.753733 
L 52.840096 191.37698 
L 52.442557 199.387879 
L 52.558958 207.772196 
L 53.236326 216.512033 
L 54.522535 225.585597 
" clip-path="url(#pdf6676fcd8)" style="fill: none; stroke-dasharray: 18.5,8; stroke-dashoffset: 0; stroke: #000000; stroke-width: 5"/>
   </g>
   <g id="line2d_5">
    <path d="M 152.134257 112.146292 
L 150.785076 110.140932 
L 149.244478 108.138151 
L 147.504342 106.150753 
L 145.557043 104.192633 
L 143.395546 102.278797 
L 141.013509 100.425366 
L 138.405382 98.649579 
L 135.566518 96.969791 
L 132.493286 95.40546 
L 129.183188 93.977128 
L 125.634979 92.706393 
L 121.848794 91.615869 
L 117.826271 90.729144 
L 113.570684 90.070717 
L 109.087073 89.665932 
L 104.382378 89.540897 
L 99.465568 89.72239 
L 94.34778 90.237756 
L 89.042443 91.114786 
L 83.565412 92.381582 
L 77.935093 94.066416 
L 72.172562 96.197561 
L 66.301685 98.803121 
L 60.349223 101.910832 
L 54.344938 105.547858 
L 48.321679 109.740568 
L 42.315471 114.514293 
L 36.365577 119.893075 
L 30.514553 125.899393 
L 24.808293 132.553878 
L 19.296045 139.875013 
" clip-path="url(#pdf6676fcd8)" style="fill: none; stroke-dasharray: 18.5,8; stroke-dashoffset: 0; stroke: #000000; stroke-width: 5"/>
   </g>
   <g id="line2d_6">
    <path d="M 168.54041 128.800551 
L 169.006263 126.428898 
L 169.335045 123.923609 
L 169.511959 121.287982 
L 169.52178 118.526441 
L 169.348923 115.644609 
L 168.977497 112.649387 
L 168.391381 109.54903 
L 167.574303 106.353217 
L 166.509927 103.073128 
L 165.181952 99.721507 
L 163.574215 96.312734 
L 161.670806 92.862882 
L 159.456192 89.389777 
L 156.915348 85.913046 
L 154.033901 82.454162 
L 150.798278 79.036482 
L 147.195867 75.685274 
L 143.215186 72.42774 
L 138.846056 69.293018 
L 134.079792 66.312184 
L 128.909392 63.518239 
L 123.329741 60.946074 
L 117.337812 58.632434 
L 110.932886 56.615856 
L 104.116767 54.936591 
L 96.894007 53.636519 
L 89.27213 52.75903 
L 81.261866 52.348895 
L 72.877376 52.452113 
L 64.136484 53.115737 
L 55.06091 54.387678 
" clip-path="url(#pdf6676fcd8)" style="fill: none; stroke-dasharray: 18.5,8; stroke-dashoffset: 0; stroke: #000000; stroke-width: 5"/>
   </g>
   <g id="line2d_7">
    <path d="M 168.346593 152.177647 
L 170.354072 150.831621 
L 172.359272 149.294175 
L 174.349405 147.557166 
L 176.310583 145.612948 
L 178.227816 143.454463 
L 180.08499 141.075343 
L 181.864876 138.470011 
L 183.549126 135.633792 
L 185.118287 132.563024 
L 186.551821 129.255176 
L 187.828134 125.70897 
L 188.92461 121.924504 
L 189.817659 117.90338 
L 190.482776 113.648833 
L 190.894611 109.165864 
L 191.027043 104.461372 
L 190.853281 99.544283 
L 190.345963 94.425691 
L 189.477277 89.118981 
L 188.219094 83.639965 
L 186.543115 78.007004 
L 184.421033 72.241129 
L 181.824708 66.366162 
L 178.72636 60.408821 
L 175.098779 54.398824 
L 170.915546 48.368981 
L 166.15127 42.355275 
L 160.78185 36.39693 
L 154.78474 30.536469 
L 148.139235 24.819753 
L 140.826777 19.296 
" clip-path="url(#pdf6676fcd8)" style="fill: none; stroke-dasharray: 18.5,8; stroke-dashoffset: 0; stroke: #000000; stroke-width: 5"/>
   </g>
   <g id="line2d_8">
    <path d="M 151.666558 168.557593 
L 154.037475 169.027175 
L 156.542244 169.359897 
L 159.17759 169.540954 
L 161.939112 169.555118 
L 164.821212 169.386792 
L 167.817014 169.020076 
L 170.918289 168.438836 
L 174.115383 167.626783 
L 177.397142 166.567567 
L 180.750847 165.244863 
L 184.162144 163.642488 
L 187.614984 161.744505 
L 191.091567 159.535355 
L 194.572289 156.999981 
L 198.035699 154.123976 
L 201.458463 150.893731 
L 204.81533 147.296594 
L 208.07912 143.321039 
L 211.220708 138.956844 
L 214.209032 134.195273 
L 217.011104 129.029273 
L 219.592039 123.453673 
L 221.915097 117.465389 
L 223.941744 111.063642 
L 225.631724 104.250172 
L 226.943151 97.029464 
L 227.832624 89.408977 
L 228.255354 81.399368 
L 228.165319 73.014725 
L 227.51544 64.272802 
L 226.25777 55.195238 
" clip-path="url(#pdf6676fcd8)" style="fill: none; stroke-dasharray: 18.5,8; stroke-dashoffset: 0; stroke: #000000; stroke-width: 5"/>
   </g>
  </g>
 </g>
 <defs>
  <clipPath id="pdf6676fcd8">
   <rect x="7.2" y="7.2" width="266.112987" height="266.112"/>
  </clipPath>
 </defs>
</svg>
