<?xml version="1.0" encoding="utf-8" standalone="no"?>
<!DOCTYPE svg PUBLIC "-//W3C//DTD SVG 1.1//EN"
  "http://www.w3.org/Graphics/SVG/1.1/DTD/svg11.dtd">
<svg xmlns:xlink="http://www.w3.org/1999/xlink" width="280.512987pt" height="280.512pt" viewBox="0 0 280.512987 280.512" xmlns="http://www.w3.org/2000/svg" version="1.1">
 <metadata>
  <rdf:RDF xmlns:dc="http://purl.org/dc/elements/1.1/" xmlns:cc="http://creativecommons.org/ns#" xmlns:rdf="http://www.w3.org/1999/02/22-rdf-syntax-ns#">
   <cc:Work>
    <dc:type rdf:resource="http://purl.org/dc/dcmitype/StillImage"/>
    <dc:date>2025-05-29T07:05:08.757600</dc:date>
    <dc:format>image/svg+xml</dc:format>
    <dc:creator>
     <cc:Agent>
      <dc:title>Matplotlib v3.9.3, https://matplotlib.org/</dc:title>
     </cc:Agent>
    </dc:creator>
   </cc:Work>
  </rdf:RDF>
 </metadata>
 <defs>
  <style type="text/css">*{stroke-linejoin: round; stroke-linecap: butt}</style>
 </defs>
 <g id="figure_1">
  <g id="patch_1">
   <path d="M 0 280.512 
L 280.512987 280.512 
L 280.512987 0 
L 0 0 
z
" style="fill: #a2a2a2"/>
  </g>
  <g id="axes_1">
   <g id="patch_2">
    <path d="M 140.256194 261.217346 
C 172.33536 261.217346 203.104964 248.472158 225.788359 225.788763 
C 248.471755 203.105368 261.216942 172.335763 261.216942 140.256598 
C 261.216942 108.177433 248.471755 77.407828 225.788359 54.724433 
C 203.104964 32.041038 172.33536 19.29585 140.256194 19.29585 
C 108.177029 19.29585 77.407425 32.041038 54.724029 54.724433 
C 32.040634 77.407828 19.295447 108.177433 19.295447 140.256598 
C 19.295447 172.335763 32.040634 203.105368 54.724029 225.788763 
C 77.407425 248.472158 108.177029 261.217346 140.256194 261.217346 
z
" clip-path="url(#p26a690d175)" style="fill: #a2a2a2"/>
   </g>
   <g id="line2d_1">
    <path d="M 128.466587 112.110273 
L 129.822067 110.109167 
L 131.368955 108.111241 
L 133.115332 106.129324 
L 135.06878 104.177338 
L 137.236284 102.270309 
L 139.624138 100.424378 
L 142.237837 98.656801 
L 145.081969 96.985949 
L 148.160106 95.431291 
L 151.474679 94.013375 
L 155.026866 92.753804 
L 158.816462 91.675193 
L 162.841754 90.801122 
L 167.09939 90.15608 
L 171.584252 89.765397 
L 176.289317 89.655158 
L 181.205531 89.852112 
L 186.321674 90.38357 
L 191.624226 91.277278 
L 197.097246 92.561292 
L 202.72224 94.263823 
L 208.47804 96.41308 
L 214.340695 99.037089 
L 220.283354 102.163504 
L 226.276172 105.819394 
L 232.286216 110.031024 
L 238.277382 114.823614 
L 244.210332 120.22108 
L 250.042439 126.245768 
L 255.727744 132.918165 
L 261.216942 140.256598 
" clip-path="url(#p26a690d175)" style="fill: none; stroke-dasharray: 18.5,8; stroke-dashoffset: 0; stroke: #000000; stroke-width: 5"/>
   </g>
   <g id="line2d_2">
    <path d="M 112.008141 128.712857 
L 111.549749 126.339751 
L 111.228846 123.833441 
L 111.060222 121.197271 
L 111.059085 118.435712 
L 111.241003 115.554438 
L 111.621847 112.560399 
L 112.21771 109.461901 
L 113.044834 106.268673 
L 114.11952 102.991947 
L 115.458028 99.644519 
L 117.076477 96.240818 
L 118.990726 92.79697 
L 121.216251 89.330846 
L 123.768015 85.862122 
L 126.660325 82.412317 
L 129.90668 79.004829 
L 133.519611 75.664967 
L 137.510518 72.419966 
L 141.889484 69.298999 
L 146.665098 66.333169 
L 151.844258 63.555497 
L 157.431971 61.000892 
L 163.431146 58.706106 
L 169.842382 56.709679 
L 176.663748 55.051858 
L 183.890561 53.774506 
L 191.515159 52.92099 
L 199.526674 52.536047 
L 207.910798 52.665631 
L 216.649559 53.35674 
L 225.721089 54.657216 
" clip-path="url(#p26a690d175)" style="fill: none; stroke-dasharray: 18.5,8; stroke-dashoffset: 0; stroke: #000000; stroke-width: 5"/>
   </g>
   <g id="line2d_3">
    <path d="M 112.128442 152.090448 
L 110.125207 150.738116 
L 108.124851 149.194371 
L 106.140191 147.451112 
L 104.185136 145.500736 
L 102.274701 143.336233 
L 100.425017 140.951284 
L 98.653333 138.340368 
L 96.978011 135.498866 
L 95.418514 132.423179 
L 93.995389 129.110839 
L 92.730234 125.560637 
L 91.645665 121.772741 
L 90.765266 117.748829 
L 90.113531 113.492212 
L 89.715797 109.00797 
L 89.598159 104.303084 
L 89.787383 99.386566 
L 90.310796 94.269594 
L 91.196166 88.965643 
L 92.471573 83.490611 
L 94.165257 77.862948 
L 96.305461 72.103775 
L 98.920248 66.237002 
L 102.037315 60.289434 
L 105.683778 54.290874 
L 109.885953 48.274216 
L 114.669116 42.275522 
L 120.057247 36.334092 
L 126.072758 30.49252 
L 132.736207 24.79673 
L 140.066 19.296 
" clip-path="url(#p26a690d175)" style="fill: none; stroke-dasharray: 18.5,8; stroke-dashoffset: 0; stroke: #000000; stroke-width: 5"/>
   </g>
   <g id="line2d_4">
    <path d="M 128.756884 168.522767 
L 126.384502 168.984891 
L 123.878699 169.309734 
L 121.242797 169.482502 
L 118.481244 169.487982 
L 115.599687 169.310594 
L 112.605054 168.934459 
L 109.505622 168.343469 
L 106.311098 167.521366 
L 103.032686 166.451834 
L 99.683157 165.118591 
L 96.276916 163.505496 
L 92.830062 161.596665 
L 89.360443 159.376592 
L 85.887711 156.830285 
L 82.433362 153.943403 
L 79.020774 150.70241 
L 75.675235 147.094735 
L 72.423964 143.108936 
L 69.296115 138.734882 
L 66.32278 133.963937 
L 63.536968 128.789151 
L 60.973579 123.205462 
L 58.669364 117.209903 
L 56.662859 110.801814 
L 54.994314 103.983063 
L 53.7056 96.758267 
L 52.840096 89.13502 
L 52.442557 81.124121 
L 52.558958 72.739804 
L 53.236326 63.999967 
L 54.522535 54.926403 
" clip-path="url(#p26a690d175)" style="fill: none; stroke-dasharray: 18.5,8; stroke-dashoffset: 0; stroke: #000000; stroke-width: 5"/>
   </g>
   <g id="line2d_5">
    <path d="M 152.134257 168.365708 
L 150.785076 170.371068 
L 149.244478 172.373849 
L 147.504342 174.361247 
L 145.557043 176.319367 
L 143.395546 178.233203 
L 141.013509 180.086634 
L 138.405382 181.862421 
L 135.566518 183.542209 
L 132.493286 185.10654 
L 129.183188 186.534872 
L 125.634979 187.805607 
L 121.848794 188.896131 
L 117.826271 189.782856 
L 113.570684 190.441283 
L 109.087073 190.846068 
L 104.382378 190.971103 
L 99.465568 190.78961 
L 94.34778 190.274244 
L 89.042443 189.397214 
L 83.565412 188.130418 
L 77.935093 186.445584 
L 72.172562 184.314439 
L 66.301685 181.708879 
L 60.349223 178.601168 
L 54.344938 174.964142 
L 48.321679 170.771432 
L 42.315471 165.997707 
L 36.365577 160.618925 
L 30.514553 154.612607 
L 24.808293 147.958122 
L 19.296045 140.636987 
" clip-path="url(#p26a690d175)" style="fill: none; stroke-dasharray: 18.5,8; stroke-dashoffset: 0; stroke: #000000; stroke-width: 5"/>
   </g>
   <g id="line2d_6">
    <path d="M 168.54041 151.711449 
L 169.006263 154.083102 
L 169.335045 156.588391 
L 169.511959 159.224018 
L 169.52178 161.985559 
L 169.348923 164.867391 
L 168.977497 167.862613 
L 168.391381 170.96297 
L 167.574303 174.158783 
L 166.509927 177.438872 
L 165.181952 180.790493 
L 163.574215 184.199266 
L 161.670806 187.649118 
L 159.456192 191.122223 
L 156.915348 194.598954 
L 154.033901 198.057838 
L 150.798278 201.475518 
L 147.195867 204.826726 
L 143.215186 208.08426 
L 138.846056 211.218982 
L 134.079792 214.199816 
L 128.909392 216.993761 
L 123.329741 219.565926 
L 117.337812 221.879566 
L 110.932886 223.896144 
L 104.116767 225.575409 
L 96.894007 226.875481 
L 89.27213 227.75297 
L 81.261866 228.163105 
L 72.877376 228.059887 
L 64.136484 227.396263 
L 55.06091 226.124322 
" clip-path="url(#p26a690d175)" style="fill: none; stroke-dasharray: 18.5,8; stroke-dashoffset: 0; stroke: #000000; stroke-width: 5"/>
   </g>
   <g id="line2d_7">
    <path d="M 168.346593 128.334353 
L 170.354072 129.680379 
L 172.359272 131.217825 
L 174.349405 132.954834 
L 176.310583 134.899052 
L 178.227816 137.057537 
L 180.08499 139.436657 
L 181.864876 142.041989 
L 183.549126 144.878208 
L 185.118287 147.948976 
L 186.551821 151.256824 
L 187.828134 154.80303 
L 188.92461 158.587496 
L 189.817659 162.60862 
L 190.482776 166.863167 
L 190.894611 171.346136 
L 191.027043 176.050628 
L 190.853281 180.967717 
L 190.345963 186.086309 
L 189.477277 191.393019 
L 188.219094 196.872035 
L 186.543115 202.504996 
L 184.421033 208.270871 
L 181.824708 214.145838 
L 178.72636 220.103179 
L 175.098779 226.113176 
L 170.915546 232.143019 
L 166.15127 238.156725 
L 160.78185 244.11507 
L 154.78474 249.975531 
L 148.139235 255.692247 
L 140.826777 261.216 
" clip-path="url(#p26a690d175)" style="fill: none; stroke-dasharray: 18.5,8; stroke-dashoffset: 0; stroke: #000000; stroke-width: 5"/>
   </g>
   <g id="line2d_8">
    <path d="M 151.666558 111.954407 
L 154.037475 111.484825 
L 156.542244 111.152103 
L 159.17759 110.971046 
L 161.939112 110.956882 
L 164.821212 111.125208 
L 167.817014 111.491924 
L 170.918289 112.073164 
L 174.115383 112.885217 
L 177.397142 113.944433 
L 180.750847 115.267137 
L 184.162144 116.869512 
L 187.614984 118.767495 
L 191.091567 120.976645 
L 194.572289 123.512019 
L 198.035699 126.388024 
L 201.458463 129.618269 
L 204.81533 133.215406 
L 208.07912 137.190961 
L 211.220708 141.555156 
L 214.209032 146.316727 
L 217.011104 151.482727 
L 219.592039 157.058327 
L 221.915097 163.046611 
L 223.941744 169.448358 
L 225.631724 176.261828 
L 226.943151 183.482536 
L 227.832624 191.103023 
L 228.255354 199.112632 
L 228.165319 207.497275 
L 227.51544 216.239198 
L 226.25777 225.316762 
" clip-path="url(#p26a690d175)" style="fill: none; stroke-dasharray: 18.5,8; stroke-dashoffset: 0; stroke: #000000; stroke-width: 5"/>
   </g>
  </g>
 </g>
 <defs>
  <clipPath id="p26a690d175">
   <rect x="7.2" y="7.2" width="266.112987" height="266.112"/>
  </clipPath>
 </defs>
</svg>
